<svg version="1.2" xmlns="http://www.w3.org/2000/svg" viewBox="0 0 1020 1020" width="1020" height="1020">
	<title>Vector Logo</title>
	<style>
		.s0 { opacity: 1;fill: #5b9279 } 
	</style>
	<path id="Path 0" fill-rule="evenodd" class="s0" d="m508.7 2.1c9.4 0 24.7 0.6 34.1 1.4 9.3 0.8 22.6 2.4 29.5 3.5 6.9 1.2 17.4 3.2 23.5 4.6 6 1.3 15.9 3.8 22 5.5 6.1 1.7 17.1 5.4 24.5 8.1 7.4 2.8 18.7 7.3 25 10.1 6.4 2.7 17.2 8 24 11.7 6.9 3.7 15.7 8.7 19.5 11 3.9 2.4 12 7.7 18.1 11.8 6 4.2 16.1 11.7 22.5 16.8 6.3 5 16.3 13.6 22.2 19.1 5.9 5.4 15.1 14.6 20.4 20.4 5.3 5.7 13.8 15.6 18.9 22 5 6.3 12.6 16.4 16.7 22.5 4.1 6 10.8 16.6 14.9 23.5 4 6.9 10.6 19.3 14.5 27.5 4 8.3 9 19.5 11.2 25 2.2 5.5 5.6 15.1 7.6 21.3 2 6.2 5.2 17.2 7.1 24.5 1.9 7.3 4.3 18.2 5.4 24.3 1.1 6 2.7 16.1 3.6 22.5 0.8 6.3 2 19.6 2.5 29.5 0.6 10 1 72.9 1 141.6 0 67.9-0.4 131.6-1 141.5-0.5 9.9-1.7 23.2-2.5 29.5-0.8 6.4-2.4 16.5-3.6 22.5-1.1 6.1-3.5 17-5.4 24.3-1.9 7.3-4.9 17.7-6.6 23-1.7 5.4-4.7 13.8-6.6 18.8-1.9 4.9-5.8 14.2-8.6 20.5-2.8 6.3-6 13.3-7.2 15.5-1.2 2.2-5 9.2-8.5 15.5-3.5 6.3-10.4 17.6-15.4 25-5 7.4-12.4 17.8-16.5 23-4.1 5.3-12.6 15.3-19 22.4-6.4 7.1-16.1 17.1-21.6 22.1-5.5 5-13 11.6-16.5 14.7-3.6 3.1-11.7 9.4-18 14-6.4 4.7-14.7 10.6-18.5 13.1-3.9 2.5-11.8 7.4-17.6 10.8-5.7 3.4-17.2 9.5-25.5 13.5-8.2 4-19.3 8.9-24.5 11-5.2 2-14.4 5.4-20.5 7.4-6 2.1-15.3 5-20.5 6.4-5.2 1.5-13.6 3.6-18.5 4.6-5 1.1-14.2 2.9-20.5 4-6.3 1.1-16.3 2.5-22 3.3-6.9 0.8-21.6 1.3-42.6 1.2-24.7 0-34.8-0.4-44.5-1.8-6.9-0.9-17.4-2.6-23.5-3.7-6-1.1-16.4-3.3-23-4.9-6.6-1.6-17.9-4.8-25-7.1-7.2-2.3-18.2-6.2-24.5-8.6-6.3-2.5-18.3-7.8-26.5-11.8-8.3-4.1-19.5-10-25-13.3-5.5-3.2-13.9-8.3-18.6-11.4-4.6-3-13.4-9.2-19.5-13.8-6-4.6-15.5-12.2-20.9-16.9-5.5-4.8-14.8-13.4-20.6-19.2-5.8-5.8-14.4-15-19.1-20.5-4.8-5.5-13-15.8-18.4-23-5.3-7.1-13.4-18.8-17.8-26-4.5-7.1-12-20.7-16.8-30-4.7-9.4-11.3-24.1-14.7-32.8-3.4-8.6-7.8-21-9.8-27.5-2-6.5-4.9-17.1-6.4-23.7-1.6-6.6-3.6-16.1-4.5-21.1-0.8-4.9-2.2-14.1-3-20.5-0.9-6.3-2.1-21.2-2.6-33-0.7-13.8-0.9-68.9-0.6-153.6 0.3-113.8 0.6-133.9 2-145.5 0.9-7.5 2.6-18.9 3.7-25.5 1.2-6.6 3.7-18.6 5.6-26.6 2-7.9 5.8-21.2 8.6-29.5 2.8-8.2 7.7-21.3 11-29 3.3-7.7 7.6-17.1 9.5-21 2-3.8 5.8-11 8.6-16 2.8-5 7.7-13.3 11-18.5 3.3-5.2 9-13.6 12.5-18.5 3.6-5 11.2-14.7 16.8-21.5 5.7-6.9 14.3-16.6 19.1-21.6 4.9-5 12.6-12.6 17.3-16.9 4.7-4.3 12.8-11.3 18-15.5 5.3-4.2 13.4-10.4 18-13.7 4.7-3.3 11.2-7.9 14.5-10.1 3.3-2.2 10.6-6.6 16.1-9.8 5.5-3.1 16-8.8 23.5-12.5 7.4-3.7 19.1-9 26-11.7 6.9-2.8 17.4-6.7 23.5-8.8 6-2.1 18-5.5 26.5-7.6 8.5-2.2 22.3-5 30.5-6.4 8.3-1.4 21.8-3.2 30-3.9 8.3-0.8 22.7-1.4 32-1.5zm-50.5 30.9c-8 1.2-20.6 3.5-28 5.2-7.4 1.7-20.5 5.3-29 8.1-8.5 2.7-20.4 6.9-26.3 9.3-5.9 2.5-15.8 7-22 10.1-6.2 3.1-15.3 7.9-20.2 10.6-5 2.8-13.5 7.9-19 11.5-5.5 3.6-12.8 8.6-16.1 11.1-3.3 2.5-11.1 8.8-17.5 14.1-6.3 5.2-16.7 14.7-23.1 21-6.3 6.4-16.4 17.4-22.3 24.6-5.9 7.1-13.5 16.9-16.9 21.8-3.4 4.8-9 13.1-12.3 18.5-3.4 5.3-9.4 15.8-13.2 23.2-3.9 7.4-9.3 18.7-12 25-2.7 6.3-7.1 17.6-9.7 25-2.5 7.5-6.2 19.6-8 27-1.9 7.5-4.3 18.5-5.5 24.6-1.1 6-2.8 17.5-3.8 25.5-1.6 13.2-1.7 27.3-1.7 161.1 0 135 0.1 147.7 1.8 161.5 1 8.3 3.3 22.7 5.2 32 1.9 9.4 5.3 23.1 7.5 30.6 2.3 7.4 6.2 18.9 8.7 25.5 2.4 6.6 7.8 19 11.9 27.5 4.2 8.5 9.6 19.1 12.1 23.5 2.5 4.4 8.2 13.4 12.6 20 4.4 6.6 10.1 14.7 12.6 18 2.5 3.3 7 8.9 10 12.5 2.9 3.6 10.6 12.1 17 18.9 6.4 6.9 16.6 16.7 22.6 21.9 6.1 5.2 15.3 12.8 20.5 16.7 5.3 4 14.7 10.6 21.1 14.8 6.3 4.1 17.3 10.7 24.5 14.6 7.1 3.9 19.1 9.8 26.5 13 7.4 3.3 19.3 8 26.5 10.4 7.1 2.5 19.1 6.2 26.5 8.1 7.4 2 19.6 4.7 27 6.1 7.4 1.3 18.3 2.9 24 3.5 5.8 0.6 14.1 1.2 18.5 1.4l8 0.2c0.5-19.4 0.2-29.3-0.5-34.5-0.6-5.3-2.1-13.8-3.4-19-1.3-5.3-4-13.8-6.1-19-2.1-5.3-5.8-13.2-8.2-17.6-2.4-4.4-7-11.5-10.1-15.9-3.1-4.4-10-12.3-15.2-17.5-5.3-5.3-13.6-12.4-18.5-15.9-5-3.5-12.4-8.1-16.5-10.4-4.1-2.3-12.2-5.9-18-8.1-5.8-2.1-14.2-4.8-18.8-5.8l-8.2-1.9c-5.7 11.9-9.1 16.6-12.8 20.4-3.1 3.2-8.4 7.3-11.7 9.1-3.3 1.8-8.5 4.1-11.5 4.9-3.1 0.9-9.1 1.6-13.5 1.6-4.4 0-10.1-0.5-12.5-1.1-2.5-0.5-7.3-2.3-10.6-3.9-3.3-1.6-8.2-4.9-11-7.3-2.7-2.4-6.7-7-8.9-10.3-2.2-3.2-5-8.8-6.2-12.4-1.8-4.9-2.3-8.8-2.4-15.5 0-5.4 0.7-11.2 1.6-14.5 0.9-3 3-8.2 4.8-11.4 1.8-3.4 5.9-8.5 9.6-12 3.6-3.4 9.1-7.4 12.3-8.9 3.2-1.5 8.8-3.4 12.5-4.3 4.6-1.1 9-1.5 13.8-1.1 3.8 0.4 9.4 1.4 12.5 2.4 3 1 8.1 3.4 11.3 5.3 3.3 1.9 8.2 6 10.9 9 2.8 3 6.4 8.4 8.2 12 1.7 3.6 3.5 7.5 3.9 8.7 0.4 1.3 1.2 2.5 1.9 2.7 0.7 0.2 6.5 1.6 12.8 3 6.3 1.4 15.8 4.2 21 6.2 5.2 1.9 13.6 5.5 18.5 8 5 2.5 13.3 7.4 18.5 10.9 5.2 3.5 13.7 10.1 18.7 14.7 5 4.6 11.8 11.2 15 14.8 3.2 3.6 8 9.6 10.6 13.3 2.6 3.7 5.2 6.7 5.7 6.7 0.7 0 1-15.7 0.8-45.7l-0.3-45.8c-14.7-1-22.3-1.8-26.5-2.4-4.1-0.7-11.1-2.1-15.5-3.1-4.4-1.1-11.4-3-15.5-4.4-4.1-1.3-10-3.4-13-4.6-3-1.2-10-4.5-15.5-7.2-5.5-2.8-13.4-7.4-17.5-10.1-4.1-2.8-11.3-8.1-16-11.8-4.7-3.7-12.8-11.2-18.1-16.6-5.3-5.4-13.1-14.6-17.4-20.4-4.3-5.7-9.3-13.2-11.3-16.5-1.9-3.3-5.3-9.8-7.5-14.5-2.2-4.6-5.5-12.3-7.2-17-1.8-4.7-4.4-13-5.8-18.5-1.5-5.5-3.3-14.3-4.1-19.5-0.8-5.2-1.8-12-2.1-15l-0.7-5.5c9.8-1.2 18.3-1.5 25.2-1.5 6.8 0 16.5 0.5 21.5 1 4.9 0.6 13.5 2 19 3.1 5.5 1.1 15.4 3.8 22 6 6.6 2.2 17.4 6.6 24 9.8 6.6 3.3 16.1 8.6 21 11.8 5 3.3 12.6 8.8 17 12.3 4.4 3.5 11.5 9.9 15.8 14.2 4.2 4.3 10.3 11.1 13.5 15.1 3.2 4 8.4 11.3 11.7 16.2 3.2 5 8.3 13.9 11.2 19.8 3 5.9 5.6 10.8 5.9 10.8 0.2 0 2.8-4.7 5.6-10.3 2.8-5.6 7.6-14.1 10.6-18.8 3-4.6 8.6-12.3 12.3-17 3.7-4.6 11.4-13 17.1-18.5 5.7-5.5 14-12.7 18.4-16 4.4-3.3 12.5-8.7 18-12 5.5-3.3 14.8-8.2 20.8-10.8 5.9-2.6 16-6.3 22.5-8.3 6.4-1.9 16.9-4.5 23.2-5.7 9.5-1.7 15.5-2.1 34.7-2.1 12.8-0.1 23.5 0.1 23.8 0.4 0.4 0.3-0.1 6.3-1 13.5-0.9 7.2-3 18.4-4.6 25-1.6 6.6-4.6 16.3-6.5 21.5-2 5.2-5.9 14-8.7 19.5-2.8 5.5-7.6 13.9-10.7 18.5-3.1 4.7-8.3 11.9-11.6 16-3.3 4.2-10.5 11.9-16 17.2-5.4 5.4-13 12.1-16.9 15.1-3.8 2.9-9.7 7.1-13 9.3-3.3 2.1-9.6 5.9-14 8.3-4.4 2.3-12.1 6-17 8.1-5 2.1-12.8 5-17.5 6.4-4.7 1.5-11.4 3.3-15 4.1-3.6 0.8-11.1 2.2-16.8 3-5.6 0.9-12.7 1.6-15.7 1.6-3.1 0-6.2 0.2-7 0.5-1.3 0.4-1.5 6.4-1.5 46 0 29.7 0.3 45.5 1 45.5 0.5 0 3.1-3 5.8-6.7 2.7-3.7 7.9-10.2 11.6-14.3 3.8-4.1 10.3-10.6 14.5-14.3 4.1-3.8 12.5-10.2 18.6-14.2 6-4.1 16.2-9.8 22.5-12.8 6.3-3 15.1-6.6 19.5-8.1 4.4-1.4 12.7-3.7 18.5-5 8.9-1.9 10.7-2.7 11.7-4.7 0.6-1.3 2.6-5.6 4.4-9.4 2.2-4.7 5.3-9 9.4-13.1 3.6-3.6 8.7-7.3 12.5-9.2 3.6-1.8 9.9-4 14-4.9 5.1-1.1 9.7-1.4 14-1 3.6 0.3 9.2 1.5 12.6 2.7 3.3 1.1 8.3 3.6 11.2 5.5 2.9 1.9 7.3 5.6 9.8 8.2 2.5 2.6 5.9 7.5 7.7 10.8 1.7 3.3 3.7 8.2 4.4 11 0.8 2.7 1.4 8.8 1.4 13.5 0 5.7-0.6 10.6-2 15-1.1 3.6-3.3 8.6-5 11.3-1.7 2.6-4.7 6.6-6.8 8.9-2.1 2.3-6.4 5.9-9.7 8-3.3 2.2-9 4.8-12.6 5.9-4.3 1.3-9.3 2-15 2-4.7-0.1-10.9-0.8-14-1.7-3-0.8-8.2-3-11.5-4.9-3.3-1.8-8.7-6.1-12-9.7-3.4-3.6-7.4-9.2-9.2-13.1l-3.3-6.7c-9.7 2.3-16.8 4.4-22 6-5.2 1.7-14.1 5.4-19.7 8.3-5.7 2.9-14.4 8.1-19.5 11.7-5 3.6-13.5 10.8-18.8 16.1-5.2 5.2-12.4 13.6-15.9 18.5-3.5 4.9-9 14.3-12.2 20.9-3.2 6.6-7.1 16.6-8.8 22.1-1.7 5.5-3.8 14.2-4.7 19.5-1 5.6-1.7 16.2-1.8 26l-0.1 16.5c14.7-0.5 24.4-1.3 31-2.1 6.6-0.9 16.7-2.4 22.5-3.5 5.8-1.1 16.3-3.5 23.5-5.4 7.1-1.9 18.9-5.4 26-7.9 7.2-2.4 18.9-7 26-10.1 7.2-3.1 19.1-8.8 26.5-12.8 7.5-4 20.1-11.6 28-16.8 8-5.3 20.4-14.3 27.6-20 7.1-5.7 20.2-17.6 29-26.4 8.8-8.8 20.7-21.9 26.4-29.1 5.7-7.1 14.5-19.3 19.6-27 5.1-7.7 12.5-19.9 16.4-27 3.9-7.2 9.9-19.8 13.5-28 3.5-8.3 8.5-21.3 11-29 2.6-7.7 6.2-20.3 8.1-28 1.9-7.8 4.4-19.7 5.5-26.6 1.1-6.8 2.5-17.4 3.2-23.5 1-8.5 1.3-44.4 1.3-157.5 0-112.6-0.3-149.2-1.3-157.6-0.7-6.1-2.2-16.7-3.3-23.5-1.1-6.9-3.6-19.1-5.6-27.1-1.9-7.9-6-21.7-9-30.5-3-8.8-7.2-19.8-9.3-24.5-2-4.7-6.7-14.3-10.3-21.5-3.6-7.1-9.4-17.7-12.9-23.5-3.5-5.8-9.6-15-13.5-20.5-3.8-5.5-11.2-15.2-16.4-21.5-5.1-6.3-15.9-18.1-23.9-26-8-8-19.9-18.9-26.5-24.2-6.6-5.3-15.6-12.2-20-15.3-4.5-3.2-11.9-8.1-16.6-11-4.6-2.9-10.9-6.6-14-8.3-3-1.7-10.9-5.8-17.5-9.1-6.6-3.3-16-7.7-21-9.7-4.9-2.1-15.5-6-23.5-8.7-8-2.7-19-6-24.5-7.4-5.5-1.4-14.3-3.4-19.5-4.4-5.2-1-12.7-2.3-16.5-2.9-3.9-0.6-11.5-1.5-17-2-5.5-0.6-13.3-1.2-17.3-1.5l-7.2-0.6c0 21.3 0.6 32 1.4 37.5 0.8 5.5 2.4 13.9 3.6 18.5 1.2 4.7 3.5 11.8 5.1 15.8 1.6 4 4.5 10.5 6.5 14.5 2 4 6.4 11.3 9.7 16.2 3.4 5 10.4 13.5 15.7 18.9 5.2 5.5 13.2 12.7 17.6 16.1 4.5 3.3 11.7 8.1 16 10.6 4.4 2.4 11.9 6.1 16.9 8.2 5 2 13.3 4.8 18.5 6.1 5.2 1.3 10.8 2.7 12.3 3.1 2.5 0.5 2.9 0.2 5.3-4.7 1.5-2.8 4.4-7.6 6.5-10.5 2.2-2.9 6.7-7.3 10.2-9.8 3.4-2.5 8.7-5.4 11.7-6.5 3.1-1.2 8.9-2.5 13-3.1 6-0.9 9.1-0.8 15 0.4 4.2 0.8 10.3 2.8 13.6 4.4 3.8 1.8 8.5 5.4 13 9.9 3.8 3.8 8.2 9.2 9.7 12 1.4 2.7 3.3 7.7 4.2 11 0.9 3.3 1.6 9.4 1.6 13.5 0 4.1-0.8 10.4-1.8 14-1 3.6-3 8.5-4.4 11-1.5 2.5-4.6 6.7-7 9.5-2.4 2.7-7 6.6-10.3 8.8-3.3 2.1-9 4.7-12.5 5.8-4.4 1.3-9.4 2-15.1 1.9-4.6 0-10.7-0.6-13.5-1.3-2.7-0.7-7.8-2.9-11.4-4.8-3.5-1.8-8.9-5.9-12-8.9-3-3-7-8.2-8.7-11.5-1.8-3.3-3.4-7.3-3.7-9-0.4-1.6-1.2-3.5-1.9-4.1-0.7-0.6-5.3-1.9-10.3-2.9-4.9-1-14.2-3.4-20.5-5.5-6.3-2.1-16.5-6.2-22.5-9.2-6.1-3.1-16-8.9-22-12.9-7.6-5.1-14.9-11.3-23.6-19.9-6.9-6.9-15.2-16-18.3-20.3-3.1-4.2-6.1-7.7-6.6-7.7-0.7 0-1 15.3-1 44 0 27.3 0.3 44.8 1 46 0.8 1.7 2 2 7.5 2 3.5 0 10.9 0.7 16.2 1.5 5.4 0.8 13.6 2.3 18.3 3.4 4.7 1.1 12.8 3.4 18 5.2 5.2 1.7 15.1 5.8 22 9.1 6.9 3.3 16.8 8.8 22 12.2 5.2 3.5 12.4 8.6 16 11.5 3.6 2.9 10.7 9.4 15.9 14.4 5.1 5.1 13.2 14.4 18 20.8 4.8 6.3 11.1 15.7 14.1 21 2.9 5.2 7 13.3 9 18 2.1 4.7 4.9 12.1 6.4 16.5 1.4 4.4 3.4 11.4 4.5 15.5 1.1 4.1 2.9 14.2 4.1 22.5 1.2 8.3 1.8 15.2 1.5 15.5-0.3 0.3-10.4 0.5-22.3 0.5-18.2-0.1-23.8-0.4-34.7-2.4-7.1-1.3-17.5-3.6-23-5.2-5.5-1.7-14-4.6-19-6.6-4.9-2-13.3-6-18.5-8.8-5.2-2.8-12.7-7.2-16.5-9.7-3.9-2.5-10.6-7.3-15-10.8-4.4-3.5-12.2-10.7-17.4-15.9-5.2-5.3-12.4-13.7-16.2-18.6-3.7-5-9.2-13.1-12.1-18.1-2.9-5-6.9-12.3-8.8-16.3-2-3.9-3.8-7.2-4-7.2-0.3 0-3 4.9-5.9 10.8-3 5.9-8.3 15.3-12 20.8-3.6 5.5-8.6 12.4-11.1 15.5-2.5 3-7.5 8.6-11.1 12.4-3.5 3.7-10.7 10.4-16 14.9-5.2 4.4-13.5 10.7-18.5 14-4.9 3.3-13.3 8.1-18.5 10.7-5.2 2.6-12.4 5.9-16 7.3-3.6 1.4-10.8 3.9-16 5.6-5.2 1.6-14.2 3.9-20 5.1-5.8 1.2-16.4 2.6-23.5 3.2-7.2 0.6-18.8 0.8-25.8 0.4l-12.8-0.6c0.1-4.3 0.7-10 1.5-15.5 0.8-5.5 2.2-13.6 3.1-18 0.9-4.4 3.3-13.2 5.4-19.5 2.1-6.3 6.3-16.9 9.5-23.5 3.1-6.6 9-17 13-23 4.1-6.1 10.4-14.6 14.2-19.1 3.8-4.4 10.5-11.4 14.9-15.6 4.4-4.2 11.1-10.1 15-13.1 3.8-3 10.6-7.7 15-10.5 4.4-2.8 13.6-7.9 20.5-11.2 6.9-3.3 17.2-7.5 23-9.4 5.8-1.9 15-4.4 20.5-5.5 5.5-1.1 13.9-2.5 18.5-3.1 4.7-0.6 10.8-1.2 13.5-1.3l5-0.3c0.4-70.5 0.2-91.3-0.2-91.7-0.4-0.4-1.9 0.9-3.2 3-1.4 2-5.2 7-8.5 11.1-3.4 4.2-9.4 10.8-13.6 14.9-4.1 4.1-10.6 9.9-14.5 13.1-3.8 3.1-11.3 8.3-16.5 11.5-5.2 3.3-14.2 8-20 10.6-5.8 2.6-14.1 5.9-18.5 7.3-4.4 1.4-9.8 3-12 3.6-2.2 0.5-6.6 1.4-9.8 2-5.4 1.1-5.8 1.3-6.9 4.9-0.6 2-2.4 6.3-4 9.5-1.5 3.1-5.4 8.3-8.6 11.5-3.1 3.2-8.7 7.3-12.2 9.2-3.6 1.8-8.8 4-11.5 4.7-2.8 0.7-8.6 1.3-13 1.3-4.4 0-10-0.5-12.3-1-2.3-0.5-7.3-2.4-11-4.2-4.1-2-9.1-5.6-12.9-9.3-3.5-3.4-7.4-8.5-9.1-12-1.7-3.3-3.8-8.5-4.7-11.5-0.9-3-1.6-8.9-1.6-13 0-4.1 0.7-10 1.5-13 0.8-3 2.7-8 4.2-11 1.5-3.1 5.6-8.4 9.3-12.1 4.1-4.1 9-7.9 13-9.9 3.6-1.8 9.7-3.9 13.6-4.7 4.4-0.9 9.2-1.3 13-0.9 3.3 0.4 8.4 1.4 11.5 2.2 3 0.8 8.2 3 11.5 4.8 3.3 1.9 8.5 6 11.5 9.2 3.1 3.3 7 8.9 8.8 12.6 1.7 3.8 3.6 6.8 4.2 6.8 0.5 0 3.1-0.5 5.7-1.1 2.6-0.6 8.4-2.2 12.8-3.6 4.4-1.4 12.5-4.7 18-7.3 5.5-2.5 13.8-7.2 18.5-10.3 4.7-3.1 12-8.7 16.2-12.4 4.2-3.8 10.7-10.2 14.3-14.3 3.6-4.2 9.1-11.2 12.1-15.8 3-4.5 7.2-11.7 9.3-16 2.2-4.3 5.5-12.3 7.4-17.8 1.9-5.5 4.2-13.6 5.1-18 1-4.4 2.1-11.6 2.6-16 0.4-4.4 0.7-13.6 0.7-20.4-0.1-7.4-0.6-12.5-1.2-12.6-0.5-0.1-5.7 0.2-11.5 0.6-5.7 0.4-17 1.8-25 2.9zm-151.5 159.2c-2.2 1.9-5.1 5.5-6.3 8-1.5 3.1-2.2 6.2-2.3 10.4 0 4.6 0.7 7.3 2.8 11.5 1.6 3.3 4.4 6.8 7 8.8 2.3 1.7 6.2 3.7 8.5 4.3 2.3 0.6 6.5 0.9 9.3 0.5 2.7-0.3 6.8-1.7 9-3 2.2-1.3 5.3-3.8 6.8-5.7 1.6-1.9 3.5-5 4.3-6.9 0.8-1.9 1.4-6.2 1.4-9.5-0.1-3.6-0.8-7.6-1.9-10-1-2.2-3.8-5.8-6.3-8-2.5-2.2-6.3-4.6-8.4-5.2-2.2-0.7-6-1.2-8.4-1.2-2.5 0.1-6.1 0.6-8 1.2-1.9 0.7-5.2 2.8-7.5 4.8zm375.1 1.4c-3.1 3-5.5 6.6-6.2 9-0.7 2.2-1.2 6.3-1.2 9 0 3.1 0.8 6.9 2.3 10 1.2 2.8 4 6.5 6.2 8.3 2.2 1.8 6.2 4 8.9 4.9 3.2 1 6.7 1.4 9.5 1.1 2.5-0.3 6.3-1.5 8.5-2.6 2.2-1.1 5.5-3.5 7.3-5.4 1.7-1.8 3.8-5 4.7-7 0.9-2.1 1.5-6.6 1.5-10 0-3.9-0.7-7.8-1.8-10.3-1-2.2-3.4-5.5-5.2-7.4-1.9-1.8-4.8-4.1-6.5-4.9-1.6-0.8-5.9-1.7-9.5-1.8-3.5-0.2-8 0.2-10 0.8-1.9 0.7-5.7 3.5-8.5 6.3zm-221.1 73.5c-6.6 1.6-16.3 4.5-21.5 6.5-5.2 2-13.8 5.9-19 8.7-5.2 2.8-12.9 7.4-17 10.3-4.1 2.9-11.8 9.1-17 13.8-5.2 4.6-12.1 11.6-15.2 15.4-3.1 3.8-8.2 10.5-11.3 14.9-3.1 4.4-8.3 13.4-11.6 20-3.2 6.6-7.5 16.8-9.4 22.7-1.9 6-3.9 12.6-4.3 14.9l-0.7 4c10.8-1 17.8-1.9 22.5-2.7 4.7-0.7 12.5-2.5 17.5-3.9 4.9-1.5 13-4.2 18-6.2 4.9-2 13-5.8 18-8.6 5-2.7 12.6-7.5 16.9-10.6 4.4-3.1 12.5-9.9 18-15.1 5.4-5.3 12.3-12.5 15.1-16 2.9-3.6 7.6-10.1 10.5-14.5 2.9-4.4 7.6-13 10.5-19.1 2.9-6 7-16.1 8.9-22.5 2-6.3 3.7-12.7 3.7-14.2-0.1-2-0.5-2.7-1.8-2.6-1 0-5.6 0.5-10.3 1-4.6 0.5-13.9 2.2-20.5 3.8zm67.2 2c0.7 3.1 2.6 9.1 4 13.5 1.4 4.4 4.9 12.8 7.7 18.5 2.8 5.8 7.6 14.4 10.7 19.1 3.1 4.6 8.2 11.6 11.5 15.5 3.2 3.8 7.5 8.6 9.4 10.6 2 2 6.5 6.2 10.1 9.4 3.6 3.1 11 8.7 16.5 12.4 5.5 3.7 14.7 9 20.5 11.8 5.8 2.8 13.9 6.3 18 7.7 4.1 1.3 11.1 3.4 15.5 4.4 4.4 1.1 11.2 2.5 15 3.1 3.9 0.6 10 1.2 13.5 1.3l6.5 0.3c-0.4-4.7-2.4-11.4-4.6-18-2.2-6.6-6.3-16.7-9.2-22.5-2.9-5.8-7.2-13.5-9.7-17-2.4-3.6-6.8-9.7-9.9-13.5-3.1-3.9-8.3-9.8-11.6-13.1-3.3-3.3-8.9-8.4-12.5-11.4-3.6-2.9-9.6-7.5-13.5-10-3.9-2.6-10.4-6.6-14.5-8.8-4.1-2.3-12.2-6-18-8.3-5.8-2.3-15.9-5.4-22.5-7-6.6-1.6-16.4-3.4-21.8-3.9-5.4-0.6-10.2-1.1-10.7-1.1-0.5 0-1.2 0.4-1.4 0.8-0.3 0.4 0.2 3.2 1 6.2zm-192.2 361.7c0.9 3.3 2.7 9.4 4.2 13.5 1.4 4.1 4.8 12.2 7.6 18 2.8 5.8 8.1 15 11.8 20.5 3.7 5.5 10 13.7 14.1 18.2 4 4.5 10.7 11.2 14.8 14.8 4.1 3.7 11.3 9.2 16 12.4 4.7 3.2 11.4 7.5 15 9.4 3.6 2 10.3 5.2 15 7.1 4.7 1.9 10.8 4.3 13.5 5.2 2.8 0.9 7.5 2.4 10.5 3.2 3.1 0.8 9.4 2 14 2.8 4.7 0.7 11.7 1.7 15.5 2.1l7 0.7c-1.1-6.5-2.9-12.7-4.6-18.1-1.7-5.4-5.5-14.7-8.3-20.7-2.9-6.1-8.4-15.8-12.3-21.6-3.9-5.7-10.4-14.1-14.5-18.6-4-4.5-9.8-10.4-12.8-13.1-3-2.7-8.2-6.9-11.5-9.4-3.3-2.4-8.9-6.3-12.5-8.6-3.6-2.3-11.2-6.4-17-9.1-5.8-2.8-14.8-6.4-20-8.1-5.2-1.7-14.1-4-19.8-5.1-5.6-1.1-14-2.3-18.6-2.6-4.7-0.4-8.4-0.3-8.5 0.2 0 0.5 0.6 3.6 1.4 6.9zm326.6-4.9c-4.7 0.8-13.7 3.1-20 5-6.3 2-17.3 6.4-24.5 10-7.2 3.5-17.3 9.4-22.5 13.2-5.2 3.7-14 11-19.4 16.2-5.4 5.3-12.2 12.5-15.1 16-2.8 3.6-7 9.2-9.2 12.5-2.3 3.3-6.6 11-9.6 17.1-3 6-6.9 14.8-8.6 19.5-1.6 4.6-3.7 11.2-4.6 14.5-0.8 3.3-1.5 6.5-1.5 7.2 0 1 1.7 1.1 6.7 0.7 3.7-0.3 10.6-1.2 15.3-1.9 4.6-0.8 11.9-2.3 16-3.4 4.1-1.1 10-2.9 13-4 3-1 9.3-3.7 14-5.8 4.7-2.2 12.8-6.6 18-9.8 5.2-3.2 12.7-8.3 16.5-11.4 3.9-3.1 10.4-9 14.5-13.1 4.2-4.2 10.1-10.7 13.1-14.6 3-3.8 7.9-10.8 10.9-15.5 3-4.6 7.5-13 10.1-18.5 2.6-5.5 6.1-14.3 7.7-19.5 1.7-5.2 3.3-11.2 3.6-13.2l0.6-3.8c-8.1 0.2-11.8 0.5-13.5 0.7-1.6 0.2-6.8 1.1-11.5 1.9zm-357.7 168c-1.2 1.6-3 4.6-4 6.5-1.1 2.2-1.7 5.7-1.7 9.5 0 4.2 0.7 7.4 2.4 10.9 1.3 2.7 3.9 6.3 5.9 7.9 1.9 1.7 5 3.7 7 4.5 1.9 0.9 6.2 1.5 9.5 1.5 4.3 0 7.3-0.7 10.9-2.4 2.7-1.3 6-3.7 7.4-5.4 1.4-1.6 3.3-4.8 4.3-7 1-2.2 1.8-6.3 1.8-9 0.1-2.8-0.5-6.8-1.1-9-0.7-2.5-3-5.9-6.2-9.1-3.3-3.3-6.6-5.5-9.1-6.3-2.2-0.6-6.3-1.1-9-1.1-3.6 0-6.7 0.8-10.5 2.7-3 1.5-6.4 4.1-7.6 5.8zm377.5-2.5c-2.3 1.9-5.2 5.7-6.4 8.5-1.3 2.8-2.4 7-2.4 9.5 0 2.5 0.7 6.5 1.5 9 0.8 2.5 3.1 6.2 5 8.3 1.9 2 5.2 4.6 7.3 5.6 2.1 1 5.5 2.2 7.7 2.6 2.7 0.5 6 0.1 9.8-0.9 3.8-1 7.2-2.9 9.9-5.3 2.2-2.1 4.7-5 5.5-6.5 0.7-1.6 1.8-4.9 2.4-7.6 0.8-3.4 0.7-6.2-0.2-10.2-0.7-3.2-2.5-7.2-4.3-9.5-1.7-2.3-5.4-5.2-8.6-6.8-4.1-2.1-6.8-2.7-11-2.7-3 0.1-6.9 0.7-8.8 1.3-1.8 0.7-5.1 2.8-7.4 4.7zm-171.8-438.2c0.2-0.1 3.8 3.4 8 7.7 4.1 4.3 10.4 11.4 13.9 15.8 3.5 4.4 9.2 12.3 12.6 17.5 3.4 5.2 8.9 15.1 12.3 22 3.3 6.9 8.1 18.6 10.6 26 2.5 7.4 5.6 19.2 7 26 1.4 6.9 3.1 19.1 3.7 27 0.9 11.2 0.9 18 0 29.6-0.6 8.2-2.3 20.6-3.7 27.5-1.4 6.8-4.4 18.1-6.6 25-2.2 6.9-6.8 18.3-10.3 25.5-3.4 7.1-9.1 17.5-12.7 23-3.5 5.5-9.7 14.1-13.7 19-4 5-10.2 12.1-13.7 15.8-3.6 3.7-6.7 6.7-6.9 6.7-0.3 0-3.2-2.8-6.5-6.2-3.2-3.5-8.9-9.9-12.6-14.3-3.6-4.4-9.8-12.7-13.7-18.5-3.8-5.8-9.8-16.4-13.3-23.5-3.5-7.2-8.4-19.1-10.8-26.5-2.5-7.4-5.4-18-6.5-23.5-1.2-5.5-2.6-14.1-3.2-19-0.6-5-1.1-16.9-1.1-26.6 0-10.8 0.6-21.6 1.6-28.5 0.9-6 2.8-15.7 4.2-21.5 1.4-5.8 4.1-15 6-20.5 1.9-5.5 5.9-14.9 8.7-21 2.9-6 7.8-15.1 10.9-20 3-5 8.2-12.4 11.4-16.6 3.2-4.2 9.9-12.2 14.8-17.8 5-5.5 9.3-10.1 9.6-10.1zm-3.7 45c-2.2 3-5.8 8.2-7.9 11.5-2.1 3.3-6 10.4-8.6 15.8-2.7 5.3-6.3 13.2-7.9 17.5-1.7 4.2-4.5 12.9-6.1 19.2-1.6 6.4-3.6 16.3-4.5 22-0.8 5.8-1.4 17.5-1.4 26.1 0 8.5 0.6 20.2 1.4 26 0.9 5.7 2.9 15.6 4.5 22 1.6 6.3 4.3 14.9 6 19 1.6 4.1 4.7 11.1 6.8 15.5 2.2 4.4 5.7 10.9 7.8 14.5 2.2 3.6 6.2 9.6 9 13.4l5.1 6.9c3.5-4.5 6.8-9.2 9.5-13.3 2.8-4.1 8.1-13.6 11.8-21 3.7-7.4 8.4-18.7 10.4-25 2-6.3 4.6-16.5 5.8-22.5 1.1-6.1 2.4-16.7 2.9-23.5 0.4-6.9 0.4-17.5 0-23.6-0.4-6-1-13-1.4-15.5-0.3-2.4-1.3-7.8-2.2-12-0.8-4.1-2.6-10.8-3.8-15-1.3-4.1-3.8-11.1-5.5-15.5-1.8-4.4-5.5-12.5-8.4-18-2.9-5.5-7.3-13.1-9.9-17-2.6-3.9-5.8-8.4-7.1-10l-2.3-3zm-277.5 60.2c0.8-0.1 4.6 0.3 8.3 0.8 3.7 0.6 9.1 2 12 3.2 2.9 1.2 8 4.1 11.5 6.5 3.4 2.4 7.8 6.5 9.8 9.1 2 2.6 4.9 7.4 6.5 10.7 1.6 3.3 3.4 9.4 4.1 13.5 0.9 5.9 0.9 9.3 0 15.6-0.8 5.3-2.4 10.4-4.9 15.5-2.5 4.9-5.8 9.5-9.8 13.5-3.3 3.3-8.7 7.4-12 9.2-3.3 1.7-8.7 3.9-12 4.7-3.3 0.9-8.7 1.6-12 1.6-3.3 0-9.4-0.9-13.5-2-4.1-1.1-9.9-3.5-12.8-5.3-2.9-1.8-7.3-5.3-9.9-7.7-2.5-2.5-5.7-6.3-7.2-8.5-1.5-2.2-3.7-6.3-4.9-9-1.1-2.8-2.6-8.4-3.3-12.5-0.9-5.9-0.9-9.1 0-14.6 0.7-3.8 2.7-10.1 4.5-14 2.1-4.5 5.5-9.4 9.7-13.8 4.9-5.3 8.3-7.8 14.4-10.8 4.7-2.3 10.5-4.3 14-4.8 3.3-0.4 6.7-0.9 7.5-0.9zm-8 29.1c-1.9 0.6-5.2 2.7-7.4 4.7-2.1 1.9-4.8 5.3-5.9 7.5-1.5 2.9-2.1 5.9-2.1 10.5 0 4.7 0.6 7.7 2.1 10.6 1.1 2.2 3.4 5.3 5 7 1.6 1.6 4.7 3.8 6.9 4.9 2.1 1 5.7 2.1 7.9 2.4 2.2 0.2 6.3-0.2 9-0.9 2.8-0.8 6.7-2.7 8.8-4.2 2-1.5 4.9-4.7 6.2-7 1.5-2.4 2.8-6.6 3.1-9.8 0.4-3 0.2-7.3-0.4-9.5-0.6-2.2-2.6-5.9-4.4-8.3-2-2.7-5.1-5.2-8.3-6.7-2.7-1.3-6.8-2.5-9-2.8-2.2-0.3-4.9-0.3-6 0-1.1 0.3-3.6 1-5.5 1.6zm574.3-28.5c3.6 0.3 9 1.4 12 2.4 3 1.1 7.5 3.1 10 4.6 2.5 1.4 6.5 4.4 8.9 6.7 2.5 2.2 6.2 6.7 8.3 10 2.2 3.3 4.8 9 5.9 12.5 1.3 4.3 2 9.4 2 15-0.1 4.9-0.8 10.9-1.7 14.1-0.9 3-2.6 7.5-3.9 10-1.2 2.4-4.9 7.3-8.1 10.8-3.2 3.5-8.6 8-11.9 10-3.3 2-9.1 4.4-13 5.4-3.8 1-9.7 1.8-13 1.8-3.3 0-8.6-0.7-11.8-1.5-3.1-0.9-8.5-2.9-12-4.7-3.7-1.8-8.6-5.6-12.2-9.2-3.3-3.4-7.5-8.9-9.2-12.2-1.8-3.2-3.9-8.6-4.8-11.9-0.8-3.3-1.5-9-1.5-12.6 0-3.5 0.7-9.2 1.6-12.5 0.8-3.3 3-8.7 4.7-12 1.8-3.2 5.7-8.4 8.7-11.5 3-3 8-6.9 11-8.6 3-1.7 7.3-3.7 9.5-4.4 2.2-0.7 6.2-1.6 9-2 2.7-0.4 7.9-0.5 11.5-0.2zm-20 32.1c-1.9 1.6-4.8 5.3-6.3 8.2-2.1 4.1-2.8 6.8-2.7 10.9 0 3.6 0.8 7.3 2.3 10.6 1.3 2.7 3.9 6.2 5.8 7.8 1.8 1.6 4.7 3.6 6.4 4.4 1.6 0.8 5.5 1.8 8.5 2 4.5 0.5 6.5 0.1 11-1.9 3-1.4 6.8-3.9 8.4-5.4 1.6-1.6 3.8-5 4.9-7.4 1.2-2.7 2-6.8 2-10.1 0-3.4-0.7-7.1-2-10-1.1-2.4-3.6-5.9-5.4-7.7-1.9-1.7-5-3.8-6.9-4.6-1.9-0.8-5.3-1.7-7.5-2-2.3-0.3-6.4 0.1-9.5 0.9-3 0.8-7.1 2.8-9 4.3z"/>
</svg>